<svg data-v-fde0c5aa="" xmlns="http://www.w3.org/2000/svg" viewBox="0 0 300 300" class="iconAbove"><!----><defs data-v-fde0c5aa=""><!----></defs><rect data-v-fde0c5aa="" fill="#ffffff" x="0" y="0" width="300px" height="300px" class="logo-background-square"></rect><defs data-v-fde0c5aa=""><!----></defs><g data-v-fde0c5aa="" id="9a71a782-cf25-43a7-a743-ea638ae730f5" fill="#3674B5" transform="matrix(5.174129353233831,0,0,5.174129353233831,17.050746305664973,174.39303433242722)"><path d="M3.81 12.46Q2.38 12.46 1.48 11.76Q0.57 11.06 0.57 9.58L0.57 9.58L0.59 9.30L1.86 9.30L1.85 9.59Q1.85 10.44 2.37 10.88Q2.90 11.33 3.75 11.33L3.75 11.33Q4.72 11.33 5.24 10.91Q5.77 10.50 5.77 9.73L5.77 9.73Q5.77 9.21 5.48 8.88Q5.19 8.55 4.77 8.36Q4.34 8.16 3.60 7.92L3.60 7.92Q2.69 7.62 2.13 7.34Q1.57 7.06 1.17 6.52Q0.77 5.98 0.77 5.10L0.77 5.10Q0.77 3.84 1.62 3.18Q2.48 2.52 3.82 2.52L3.82 2.52Q5.17 2.52 6.00 3.19Q6.83 3.85 6.83 5.22L6.83 5.22L6.83 5.39L5.56 5.39L5.56 5.18Q5.56 4.47 5.08 4.06Q4.59 3.65 3.85 3.65L3.85 3.65Q3.05 3.65 2.56 4.00Q2.07 4.34 2.07 5.00L2.07 5.00Q2.07 5.49 2.35 5.80Q2.63 6.12 3.05 6.31Q3.47 6.50 4.20 6.73L4.20 6.73Q5.12 7.04 5.69 7.31Q6.26 7.59 6.66 8.13Q7.06 8.67 7.06 9.52L7.06 9.52Q7.06 11.06 6.18 11.76Q5.31 12.46 3.81 12.46L3.81 12.46ZM10.32 12.46Q9.44 12.46 8.97 11.94Q8.50 11.41 8.50 10.23L8.50 10.23L8.50 4.93L9.65 4.93L9.65 10.15Q9.65 10.86 9.91 11.15Q10.18 11.44 10.68 11.44L10.68 11.44Q11.26 11.44 11.66 10.89Q12.05 10.35 12.05 9.42L12.05 9.42L12.05 4.93L13.20 4.93L13.20 12.29L12.33 12.29L12.18 11.44L12.10 11.44Q11.52 12.46 10.32 12.46L10.32 12.46ZM17.58 12.46Q17.08 12.46 16.66 12.20Q16.24 11.94 15.97 11.44L15.97 11.44L15.90 11.44L15.75 12.29L14.88 12.29L14.88 2.17L16.03 2.17L16.03 5.63L16.10 5.63Q16.28 5.22 16.70 4.99Q17.12 4.76 17.67 4.76L17.67 4.76Q18.65 4.76 19.26 5.73Q19.87 6.69 19.87 8.60L19.87 8.60Q19.87 10.56 19.27 11.51Q18.68 12.46 17.58 12.46L17.58 12.46ZM17.35 11.44Q18.02 11.44 18.34 10.84Q18.66 10.23 18.66 8.88L18.66 8.88L18.66 8.34Q18.66 6.99 18.34 6.38Q18.02 5.78 17.35 5.78L17.35 5.78Q16.03 5.78 16.03 8.40L16.03 8.40L16.03 8.88Q16.03 11.44 17.35 11.44L17.35 11.44ZM24.23 12.46Q22.81 12.46 21.90 11.76Q21.00 11.06 21.00 9.58L21.00 9.58L21.01 9.30L22.29 9.30L22.27 9.59Q22.27 10.44 22.80 10.88Q23.32 11.33 24.18 11.33L24.18 11.33Q25.14 11.33 25.67 10.91Q26.19 10.50 26.19 9.73L26.19 9.73Q26.19 9.21 25.91 8.88Q25.62 8.55 25.19 8.36Q24.77 8.16 24.02 7.92L24.02 7.92Q23.11 7.62 22.55 7.34Q21.99 7.06 21.60 6.52Q21.20 5.98 21.20 5.10L21.20 5.10Q21.20 3.84 22.05 3.18Q22.90 2.52 24.25 2.52L24.25 2.52Q25.59 2.52 26.43 3.19Q27.26 3.85 27.26 5.22L27.26 5.22L27.26 5.39L25.98 5.39L25.98 5.18Q25.98 4.47 25.50 4.06Q25.02 3.65 24.28 3.65L24.28 3.65Q23.48 3.65 22.99 4.00Q22.50 4.34 22.50 5.00L22.50 5.00Q22.50 5.49 22.78 5.80Q23.06 6.12 23.48 6.31Q23.90 6.50 24.63 6.73L24.63 6.73Q25.55 7.04 26.12 7.31Q26.68 7.59 27.08 8.13Q27.48 8.67 27.48 9.52L27.48 9.52Q27.48 11.06 26.61 11.76Q25.73 12.46 24.23 12.46L24.23 12.46ZM28.92 12.29L28.92 4.93L29.79 4.93L29.95 5.78L30.03 5.78Q30.58 4.76 31.71 4.76L31.71 4.76Q32.90 4.76 33.28 5.82L33.28 5.82Q33.56 5.31 34.04 5.03Q34.52 4.76 35.07 4.76L35.07 4.76Q36.81 4.76 36.81 6.99L36.81 6.99L36.81 12.29L35.66 12.29L35.66 7.07Q35.66 6.36 35.41 6.07Q35.15 5.78 34.71 5.78L34.71 5.78Q34.17 5.78 33.81 6.33Q33.45 6.87 33.45 7.80L33.45 7.80L33.45 12.29L32.30 12.29L32.30 7.07Q32.30 6.36 32.05 6.07Q31.79 5.78 31.35 5.78L31.35 5.78Q30.81 5.78 30.44 6.33Q30.07 6.87 30.07 7.80L30.07 7.80L30.07 12.29L28.92 12.29ZM40.05 12.46Q39.30 12.46 38.71 12.01Q38.12 11.56 38.12 10.39L38.12 10.39Q38.12 8.97 39.08 8.45Q40.04 7.92 41.85 7.92L41.85 7.92L41.85 6.97Q41.85 6.40 41.59 6.09Q41.34 5.78 40.68 5.78L40.68 5.78Q40.08 5.78 39.82 6.12Q39.55 6.45 39.55 6.94L39.55 6.94L39.55 7.11L38.42 7.11Q38.40 7.03 38.40 6.80L38.40 6.80Q38.40 5.82 39.05 5.29Q39.69 4.76 40.77 4.76L40.77 4.76Q41.87 4.76 42.43 5.29Q42.99 5.82 42.99 6.82L42.99 6.82L42.99 10.95Q42.99 11.19 43.11 11.31Q43.22 11.44 43.39 11.44L43.39 11.44L43.83 11.44L43.83 12.24Q43.53 12.40 43.08 12.40L43.08 12.40Q42.63 12.40 42.33 12.16Q42.03 11.91 41.92 11.49L41.92 11.49L41.85 11.49Q41.57 11.96 41.10 12.21Q40.63 12.46 40.05 12.46L40.05 12.46ZM40.32 11.44Q40.70 11.44 41.05 11.23Q41.40 11.02 41.62 10.61Q41.85 10.19 41.85 9.62L41.85 9.62L41.85 8.95Q40.59 8.95 39.96 9.23Q39.33 9.52 39.33 10.32L39.33 10.32Q39.33 10.92 39.57 11.18Q39.82 11.44 40.32 11.44L40.32 11.44ZM44.87 12.29L44.87 4.93L45.74 4.93L45.89 5.89L45.98 5.89Q46.13 5.40 46.44 5.08Q46.75 4.76 47.22 4.76L47.22 4.76Q47.42 4.76 47.57 4.81Q47.73 4.86 47.77 4.87L47.77 4.87L47.77 6.06L47.39 6.06Q46.79 6.06 46.40 6.47Q46.02 6.89 46.02 7.80L46.02 7.80L46.02 12.29L44.87 12.29ZM49.99 12.43Q49.29 12.43 48.99 11.95Q48.68 11.47 48.68 10.74L48.68 10.74L48.68 5.95L48.05 5.95L48.05 4.93L48.68 4.93L48.93 2.88L49.83 2.88L49.83 4.93L50.82 4.93L50.82 5.95L49.83 5.95L49.83 10.77Q49.83 11.44 50.48 11.44L50.48 11.44L50.82 11.44L50.82 12.24Q50.67 12.32 50.44 12.38Q50.20 12.43 49.99 12.43L49.99 12.43Z"></path></g><defs data-v-fde0c5aa=""><!----></defs><g data-v-fde0c5aa="" id="3bf98477-3642-4413-92b9-544312312c16" stroke="none" fill="#3674B5" transform="matrix(1.1208798073136579,0,0,1.1208798073136579,94.01205276951936,58.335114210617725)"><switch><g><path d="M59.6 2.5C39.4 2.5 22.9 19 22.9 39.2c0 1.7.2 3.4.4 5.1h-6.7c-7.1 0-13 5.8-13 13v15.1c0 7.1 5.8 13 13 13h2.2c-.1 1.7-.5 3.7-1.3 5.8-.7 1.9-.2 3.9 1.3 5.2.9.8 2 1.1 3 1.1.8 0 1.6-.2 2.3-.6 5.2-2.9 9.6-7.8 12.6-11.6H42c6 0 11.1-4.2 12.5-9.8 1.7.2 3.4.4 5.1.4 20.2 0 36.7-16.5 36.7-36.7C96.3 19 79.9 2.5 59.6 2.5zM49.5 72.3c0 4.2-3.4 7.6-7.6 7.6h-6.5c-.9 0-1.7.4-2.2 1.1-1.9 2.6-5.6 7.1-10 10.2 1-3.5 1.2-6.5 1.1-8.7-.1-1.4-1.3-2.6-2.7-2.6h-5c-4.2 0-7.6-3.4-7.6-7.6V57.2c0-4.2 3.4-7.6 7.6-7.6H42c4.2 0 7.6 3.4 7.6 7.6v15.1zm10.1-3c-1.6 0-3.2-.2-4.7-.4V57.2c0-7.1-5.8-13-13-13H33c-.3-.6-.3-1.4.2-2l.5-.6c.4-.5 1-.7 1.6-.6l3.3.5h.7l4.4-1c.1 0 .3-.1.4-.2l2.7-1.3c.5-.3.9-.8 1-1.4l1.1-8.2c.1-.8-.3-1.6-1.1-1.9l-1.3-.5c-.8-.3-1.3-1.1-1.1-2 .2-.8.8-1.4 1.6-1.5l2-.2c1-.1 1.7-.9 1.6-1.9l-.1-2.5-.3-5c0-.7-.5-1.3-1.2-1.6l-1.8-.7c3.8-1.7 7.9-2.7 12.3-2.7 2.3 0 4.5.2 6.6.7l.2 4.9v.1l-.6 5.5c0 .2 0 .4.1.5l.6.9c.3.4.8.4 1.2.1l1.7-1.5c.5-.4 1.1-.2 1.3.4l.1.3c.1.3.4.6.7.6l1.9.1h.3l1.6-.6c.6-.2 1.3.4 1.1 1l-.9 2.8c-.1.3-.4.5-.7.6l-2.1.1h-.2l-2.7-.8h-.6l-1.2.5c-.2.1-.5.1-.7 0l-1.6-.7c-.2-.1-.5-.1-.8.1l-2 1.4c-.2.2-.4.5-.3.7l.3 2.4c0 .3-.1.7-.5.8l-1.6.7c-.5.2-.6.9-.2 1.3l1.1 1.1c.2.2.5.2.7.2l2-.5h.5l.9.4c.3.1 1 .7 1.5 1.1.3.3.9.2 1.1-.2.1-.2.3-.3.6-.3l1.6-.2c.2 0 .3-.1.4-.2l.2-.1c.4-.4 1.1-.2 1.3.3l.8 2.2c0 .1.1.2.1.2l.9 1.1c.2.3.2.8-.1 1.1l-2.2 2c-.3.3-.8.3-1.1 0l-2.1-2c-.1-.1-.2-.1-.2-.2l-3-1.3c-.1 0-.2 0-.2-.1l-3.9-.4h-.3l-4.5 1.3c-.2.1-.5.3-.5.5l-1.5 4.6v.6l2.3 4.8c.1.2.4.4.6.5l4.4.4c.1 0 .2 0 .3.1l1.7 1c.2.1.4.4.4.6l.4 4.4c0 .1 0 .2.1.3l2.1 4c.1.1.1.2.2.3l2.5 1.8c.4.2.9.2 1.1-.2l.9-1.3s.1-.1.1-.2l1.8-4.4v-.2l.6-6.2c0-.1 0-.2.1-.2l1.2-2.6c.2-.3.5-.5.8-.5l4.3.5c.2 0 .5 0 .7-.2l.8-.9c.3-.3.3-.7.1-1l-2-2.7c-.3-.5-.1-1.1.5-1.2l.8-.2c.1 0 1.4-.1 1.7-.1h.1l2 .4c.4.1.7.4.7.9l-.5 5.4v.3l1.7 4.5C82.3 62 71.8 69.3 59.6 69.3z"></path><path d="M39.5 56.8H19.1c-1.5 0-2.7 1.2-2.7 2.7 0 1.5 1.2 2.7 2.7 2.7h20.4c1.5 0 2.7-1.2 2.7-2.7 0-1.5-1.2-2.7-2.7-2.7zM39.5 67H19.1c-1.5 0-2.7 1.2-2.7 2.7 0 1.5 1.2 2.7 2.7 2.7h20.4c1.5 0 2.7-1.2 2.7-2.7 0-1.5-1.2-2.7-2.7-2.7z"></path></g></switch></g><!----></svg>